<svg width="89" height="89" viewBox="0 0 89 89" fill="none" xmlns="http://www.w3.org/2000/svg">
<circle cx="44.5" cy="44.5" r="44.5" fill="url(#paint0_linear_136_87)"/>
<g filter="url(#filter0_d_136_87)">
<path d="M57.625 32H31.375C30.2151 32.0013 29.103 32.471 28.2828 33.3061C27.4626 34.1412 27.0012 35.2735 27 36.4545V55.5455C27.0012 56.7265 27.4626 57.8588 28.2828 58.6939C29.103 59.529 30.2151 59.9987 31.375 60H57.625C58.7849 59.9987 59.897 59.529 60.7172 58.6939C61.5374 57.8588 61.9988 56.7265 62 55.5455V36.4545C61.9988 35.2735 61.5374 34.1412 60.7172 33.3061C59.897 32.471 58.7849 32.0013 57.625 32V32ZM56.5172 39.3683L45.2672 48.2774C45.0478 48.451 44.7779 48.5453 44.5 48.5453C44.2221 48.5453 43.9522 48.451 43.7328 48.2774L32.4828 39.3683C32.3506 39.2667 32.2396 39.1393 32.1562 38.9936C32.0728 38.8479 32.0186 38.6868 31.9969 38.5196C31.9752 38.3524 31.9863 38.1825 32.0296 38.0197C32.073 37.8569 32.1476 37.7046 32.2493 37.5714C32.351 37.4383 32.4776 37.3271 32.6219 37.2442C32.7661 37.1613 32.9251 37.1085 33.0896 37.0887C33.2541 37.0689 33.4208 37.0826 33.58 37.129C33.7393 37.1754 33.8879 37.2536 34.0172 37.359L44.5 45.6603L54.9828 37.359C55.2449 37.1574 55.5744 37.069 55.9001 37.1129C56.2257 37.1568 56.5213 37.3294 56.7229 37.5934C56.9245 37.8574 57.016 38.1917 56.9775 38.5238C56.939 38.856 56.7736 39.1593 56.5172 39.3683Z" fill="white" fill-opacity="0.27" shape-rendering="crispEdges"/>
<path d="M31.375 31.5L31.3745 31.5C30.0792 31.5014 28.8392 32.026 27.9261 32.9557C27.0132 33.8852 26.5014 35.1434 26.5 36.454V36.4545L26.5 55.5455L26.5 55.546C26.5014 56.8566 27.0132 58.1148 27.9261 59.0443C28.8392 59.974 30.0792 60.4986 31.3745 60.5H31.375H57.625H57.6255C58.9208 60.4986 60.1608 59.974 61.0739 59.0443C61.9868 58.1148 62.4986 56.8566 62.5 55.546V55.5455V36.4545V36.454C62.4986 35.1434 61.9868 33.8852 61.0739 32.9557C60.1608 32.026 58.9208 31.5014 57.6255 31.5L57.625 32V31.5L31.375 31.5ZM32.7932 38.9763L32.7933 38.9763L32.7876 38.9719C32.7082 38.9109 32.6409 38.8339 32.5901 38.7452C32.5393 38.6564 32.5061 38.5578 32.4927 38.4552C32.4794 38.3525 32.4862 38.2481 32.5128 38.1483C32.5394 38.0485 32.585 37.9556 32.6467 37.8749C32.7083 37.7942 32.7847 37.7273 32.8709 37.6777C32.9572 37.6282 33.0518 37.5968 33.1493 37.5851C33.2467 37.5734 33.3456 37.5815 33.4402 37.6091C33.5348 37.6366 33.6236 37.6832 33.7013 37.7466L33.7013 37.7466L33.7068 37.751L44.1896 46.0523L44.5 46.2981L44.8104 46.0523L55.2901 37.7534C55.4469 37.6339 55.6418 37.5826 55.8333 37.6084C56.026 37.6344 56.2033 37.7368 56.3255 37.8969C56.448 38.0572 56.5045 38.2618 56.4808 38.4662C56.4573 38.6695 56.3567 38.8531 56.2037 38.9788L44.9569 47.8853C44.9568 47.8854 44.9568 47.8854 44.9568 47.8854C44.8251 47.9896 44.6643 48.0453 44.5 48.0453C44.3357 48.0453 44.1749 47.9896 44.0432 47.8854C44.0432 47.8854 44.0432 47.8854 44.0431 47.8853L32.7932 38.9763Z" stroke="white" shape-rendering="crispEdges"/>
</g>
<defs>
<filter id="filter0_d_136_87" x="22" y="31" width="45" height="38" filterUnits="userSpaceOnUse" color-interpolation-filters="sRGB">
<feFlood flood-opacity="0" result="BackgroundImageFix"/>
<feColorMatrix in="SourceAlpha" type="matrix" values="0 0 0 0 0 0 0 0 0 0 0 0 0 0 0 0 0 0 127 0" result="hardAlpha"/>
<feOffset dy="4"/>
<feGaussianBlur stdDeviation="2"/>
<feComposite in2="hardAlpha" operator="out"/>
<feColorMatrix type="matrix" values="0 0 0 0 0.587708 0 0 0 0 0.687597 0 0 0 0 0.775 0 0 0 1 0"/>
<feBlend mode="normal" in2="BackgroundImageFix" result="effect1_dropShadow_136_87"/>
<feBlend mode="normal" in="SourceGraphic" in2="effect1_dropShadow_136_87" result="shape"/>
</filter>
<linearGradient id="paint0_linear_136_87" x1="-0.776806" y1="-9.17699e-06" x2="91.6118" y2="18.6918" gradientUnits="userSpaceOnUse">
<stop stop-color="#B8C7FF"/>
<stop offset="0.475941" stop-color="#BAD6FF"/>
<stop offset="1" stop-color="#99E8F8"/>
</linearGradient>
</defs>
</svg>
