<svg width="89" height="89" viewBox="0 0 89 89" fill="none" xmlns="http://www.w3.org/2000/svg">
<circle cx="44.5" cy="44.5" r="44.5" fill="url(#paint0_linear_136_86)"/>
<g filter="url(#filter0_d_136_86)">
<path d="M59.8906 49.4627L51.4633 45.8689C51.0285 45.674 50.5511 45.5932 50.0764 45.6341C49.6016 45.6749 49.1451 45.8362 48.75 46.1025L44.2398 49.1033C41.4911 47.7683 39.2655 45.5553 37.9148 42.8142L40.8977 38.2502C41.1622 37.8546 41.3238 37.3993 41.3678 36.9255C41.4117 36.4516 41.3366 35.9743 41.1492 35.5369L37.5375 27.1095C37.2855 26.5405 36.8587 26.0665 36.3192 25.7564C35.7796 25.4462 35.1553 25.316 34.5367 25.3845C32.1102 25.7024 29.8817 26.8906 28.2655 28.7283C26.6493 30.5659 25.7554 32.9279 25.75 35.3752C25.75 49.6424 37.3578 61.2502 51.625 61.2502C54.0722 61.2448 56.4343 60.3509 58.2719 58.7347C60.1095 57.1185 61.2978 54.89 61.6156 52.4635C61.6842 51.8449 61.554 51.2206 61.2438 50.681C60.9336 50.1414 60.4597 49.7147 59.8906 49.4627Z" fill="white" fill-opacity="0.27" shape-rendering="crispEdges"/>
<path d="M51.2588 46.3252L51.2587 46.3253L51.2672 46.3288L59.6881 49.9198C59.6892 49.9203 59.6902 49.9207 59.6912 49.9212C60.1617 50.1304 60.5537 50.4837 60.8103 50.9302C61.0667 51.3762 61.1749 51.8922 61.1192 52.4036C60.8161 54.708 59.6871 56.8242 57.9417 58.3592C56.195 59.8954 53.95 60.745 51.6239 60.7502C37.6335 60.7496 26.2503 49.3661 26.25 35.3757C26.2553 33.0498 27.1049 30.805 28.6409 29.0585C30.176 27.3131 32.2922 26.1841 34.5966 25.881C35.108 25.8253 35.6239 25.9334 36.07 26.1898C36.5166 26.4466 36.87 26.8386 37.0792 27.3094L40.6896 35.7337C40.8442 36.0946 40.9061 36.4884 40.8699 36.8793C40.8336 37.2702 40.7003 37.6459 40.4821 37.9722L40.482 37.9722L40.4791 37.9766L37.4963 42.5407L37.3403 42.7794L37.4663 43.0352C38.8661 45.8761 41.1726 48.1695 44.0214 49.5531L44.2787 49.678L44.5168 49.5196L49.027 46.5188L49.0295 46.5171C49.3541 46.2983 49.7292 46.1658 50.1193 46.1322C50.5093 46.0986 50.9015 46.1651 51.2588 46.3252Z" stroke="white" shape-rendering="crispEdges"/>
</g>
<defs>
<filter id="filter0_d_136_86" x="21.75" y="25.3667" width="43.8833" height="43.8833" filterUnits="userSpaceOnUse" color-interpolation-filters="sRGB">
<feFlood flood-opacity="0" result="BackgroundImageFix"/>
<feColorMatrix in="SourceAlpha" type="matrix" values="0 0 0 0 0 0 0 0 0 0 0 0 0 0 0 0 0 0 127 0" result="hardAlpha"/>
<feOffset dy="4"/>
<feGaussianBlur stdDeviation="2"/>
<feComposite in2="hardAlpha" operator="out"/>
<feColorMatrix type="matrix" values="0 0 0 0 0.795833 0 0 0 0 0.629453 0 0 0 0 0.623403 0 0 0 1 0"/>
<feBlend mode="normal" in2="BackgroundImageFix" result="effect1_dropShadow_136_86"/>
<feBlend mode="normal" in="SourceGraphic" in2="effect1_dropShadow_136_86" result="shape"/>
</filter>
<linearGradient id="paint0_linear_136_86" x1="-0.776806" y1="-9.17699e-06" x2="91.6118" y2="18.6918" gradientUnits="userSpaceOnUse">
<stop stop-color="#FFE3B8"/>
<stop offset="0.475941" stop-color="#FFDBC7"/>
<stop offset="1" stop-color="#FFA3C7"/>
</linearGradient>
</defs>
</svg>
